# xmcd
#
# Track frame offsets: 
#        150
#        28939
#        49592
#        66016
#        80640
#        95083
#        113781
#        136646
#        149700
#        166680
#        177265
#        203458
#        219683
#        242268
#
# Disc length: 3811 seconds
#
# Revision: 3
# Processed by: cddbd v1.5.2PL0 Copyright (c) Steve Scherf et al.
# Submitted via: ExactAudioCopyFreeDBPlugin 1.0
#
DISCID=bf0ee10e
DTITLE=Mulatu Astatke and The Heliocentrics - Inspiration Information
DYEAR=2009
DGENRE=Jazz
TTITLE0=Masenqo
TTITLE1=Cha Cha
TTITLE2=Addis Black Widow
TTITLE3=Mulatu
TTITLE4=Blue Nile
TTITLE5=Esketa Dance
TTITLE6=Chick Chikka
TTITLE7=Live from the Tigre Lounge
TTITLE8=Chinese New Year
TTITLE9=Phantom of the Panther
TTITLE10=Dewel
TTITLE11=Fire in the Zoo
TTITLE12=An Epic Story
TTITLE13=Anglo Ethio Suite
EXTD=
EXTT0=
EXTT1=
EXTT2=
EXTT3=
EXTT4=
EXTT5=
EXTT6=
EXTT7=
EXTT8=
EXTT9=
EXTT10=
EXTT11=
EXTT12=
EXTT13=
PLAYORDER=
